<svg xmlns="http://www.w3.org/2000/svg" viewBox="0 0 1440 300" width="1440" height="300">
  <defs>
    <linearGradient id="gL1" x1="0" y1="0" x2="1440" y2="0" gradientUnits="userSpaceOnUse">
      <stop offset="0%"   stop-color="#7A5A10" stop-opacity="0"/>
      <stop offset="12%"  stop-color="#B8871A" stop-opacity="0.55"/>
      <stop offset="35%"  stop-color="#D4AF37" stop-opacity="0.85"/>
      <stop offset="50%"  stop-color="#E8C84A"/>
      <stop offset="65%"  stop-color="#D4AF37" stop-opacity="0.85"/>
      <stop offset="88%"  stop-color="#B8871A" stop-opacity="0.55"/>
      <stop offset="100%" stop-color="#7A5A10" stop-opacity="0"/>
    </linearGradient>
    <linearGradient id="gL2" x1="0" y1="0" x2="1440" y2="0" gradientUnits="userSpaceOnUse">
      <stop offset="0%"   stop-color="#7A5A10" stop-opacity="0"/>
      <stop offset="15%"  stop-color="#C49A20" stop-opacity="0.4"/>
      <stop offset="40%"  stop-color="#D4AF37" stop-opacity="0.65"/>
      <stop offset="50%"  stop-color="#E5C545" stop-opacity="0.8"/>
      <stop offset="60%"  stop-color="#D4AF37" stop-opacity="0.65"/>
      <stop offset="85%"  stop-color="#C49A20" stop-opacity="0.4"/>
      <stop offset="100%" stop-color="#7A5A10" stop-opacity="0"/>
    </linearGradient>
    <linearGradient id="gL3" x1="0" y1="0" x2="1440" y2="0" gradientUnits="userSpaceOnUse">
      <stop offset="0%"   stop-color="#7A5A10" stop-opacity="0"/>
      <stop offset="20%"  stop-color="#B8871A" stop-opacity="0.28"/>
      <stop offset="50%"  stop-color="#D4AF37" stop-opacity="0.5"/>
      <stop offset="80%"  stop-color="#B8871A" stop-opacity="0.28"/>
      <stop offset="100%" stop-color="#7A5A10" stop-opacity="0"/>
    </linearGradient>
  </defs>

  <!-- ── CURVA 1: arco superior suave ── -->
  <path d="M -20,200 C 180,75  380,255 580,135 S 980,28  1220,155 S 1400,235 1460,198"
        fill="none" stroke="url(#gL1)" stroke-width="3.0" stroke-linecap="round"/>
  <path d="M -20,204 C 180,79  380,259 580,139 S 980,32  1220,159 S 1400,239 1460,202"
        fill="none" stroke="url(#gL1)" stroke-width="0.65" stroke-linecap="round" opacity="0.5"/>

  <!-- ── CURVA 2: cinta media alta ── -->
  <path d="M -20,158 C 200,58  410,215 630,108 S 1010,18  1270,128 S 1430,205 1460,166"
        fill="none" stroke="url(#gL2)" stroke-width="2.2" stroke-linecap="round"/>
  <path d="M -20,162 C 200,62  410,219 630,112 S 1010,22  1270,132 S 1430,209 1460,170"
        fill="none" stroke="url(#gL2)" stroke-width="0.5" stroke-linecap="round" opacity="0.45"/>

  <!-- ── CURVA 3: línea central principal (más gruesa) ── -->
  <path d="M -20,112 C 190,235 390,38  630,165 S 990,278 1230,115 S 1410,55  1460,96"
        fill="none" stroke="url(#gL1)" stroke-width="4.2" stroke-linecap="round"/>
  <path d="M -20,117 C 190,240 390,43  630,170 S 990,283 1230,120 S 1410,60  1460,101"
        fill="none" stroke="url(#gL1)" stroke-width="0.9" stroke-linecap="round" opacity="0.55"/>
  <path d="M -20,108 C 190,231 390,34  630,161 S 990,274 1230,111 S 1410,51  1460,92"
        fill="none" stroke="url(#gL3)" stroke-width="0.4" stroke-linecap="round" opacity="0.4"/>

  <!-- ── CURVA 4: ola inferior ── -->
  <path d="M -20,225 C 250,118 445,255 685,168 S 1050,78  1290,198 S 1425,258 1460,238"
        fill="none" stroke="url(#gL2)" stroke-width="1.9" stroke-linecap="round"/>
  <path d="M -20,229 C 250,122 445,259 685,172 S 1050,82  1290,202 S 1425,262 1460,242"
        fill="none" stroke="url(#gL2)" stroke-width="0.45" stroke-linecap="round" opacity="0.42"/>

  <!-- ── CURVA 5: ribete inferior ── -->
  <path d="M -20,264 C 285,188 485,276 725,218 S 1085,158 1325,248 S 1432,276 1460,266"
        fill="none" stroke="url(#gL3)" stroke-width="1.5" stroke-linecap="round"/>
  <path d="M -20,267 C 285,191 485,279 725,221 S 1085,161 1325,251 S 1432,279 1460,269"
        fill="none" stroke="url(#gL3)" stroke-width="0.38" stroke-linecap="round" opacity="0.38"/>

  <!-- ── ORNAMENTOS DE ESQUINA ── -->
  <!-- superior-izquierda -->
  <path d="M 18,4 L 96,4 Q 112,4 112,20 L 112,76"
        fill="none" stroke="url(#gL2)" stroke-width="1.1" stroke-linecap="round" opacity="0.55"/>
  <path d="M 18,8 L 92,8 Q 106,8 106,22 L 106,76"
        fill="none" stroke="url(#gL3)" stroke-width="0.35" stroke-linecap="round" opacity="0.32"/>

  <!-- superior-derecha -->
  <path d="M 1422,4 L 1344,4 Q 1328,4 1328,20 L 1328,76"
        fill="none" stroke="url(#gL2)" stroke-width="1.1" stroke-linecap="round" opacity="0.55"/>
  <path d="M 1422,8 L 1348,8 Q 1334,8 1334,22 L 1334,76"
        fill="none" stroke="url(#gL3)" stroke-width="0.35" stroke-linecap="round" opacity="0.32"/>

  <!-- inferior-izquierda -->
  <path d="M 18,296 L 96,296 Q 112,296 112,280 L 112,224"
        fill="none" stroke="url(#gL2)" stroke-width="1.1" stroke-linecap="round" opacity="0.55"/>
  <path d="M 18,292 L 92,292 Q 106,292 106,278 L 106,224"
        fill="none" stroke="url(#gL3)" stroke-width="0.35" stroke-linecap="round" opacity="0.32"/>

  <!-- inferior-derecha -->
  <path d="M 1422,296 L 1344,296 Q 1328,296 1328,280 L 1328,224"
        fill="none" stroke="url(#gL2)" stroke-width="1.1" stroke-linecap="round" opacity="0.55"/>
  <path d="M 1422,292 L 1348,292 Q 1334,292 1334,278 L 1334,224"
        fill="none" stroke="url(#gL3)" stroke-width="0.35" stroke-linecap="round" opacity="0.32"/>

  <!-- ── SCROLLWORK (espirales en puntos de intersección) ── -->
  <path d="M 224,140 C 228,130 238,127 244,134 C 250,141 248,153 238,156 C 229,159 225,150 231,144"
        fill="none" stroke="#C8A030" stroke-width="1.0" stroke-linecap="round" opacity="0.5"/>
  <path d="M 718,140 C 722,130 732,127 738,134 C 744,141 742,153 732,156 C 723,159 719,150 725,144"
        fill="none" stroke="#C8A030" stroke-width="1.0" stroke-linecap="round" opacity="0.5"/>
  <path d="M 1214,140 C 1218,130 1228,127 1234,134 C 1240,141 1238,153 1228,156 C 1219,159 1215,150 1221,144"
        fill="none" stroke="#C8A030" stroke-width="1.0" stroke-linecap="round" opacity="0.5"/>

  <!-- ── PUNTOS DORADOS ── -->
  <circle cx="234"  cy="148" r="2.0" fill="#C8A030" opacity="0.45"/>
  <circle cx="728"  cy="148" r="2.0" fill="#C8A030" opacity="0.45"/>
  <circle cx="1224" cy="148" r="2.0" fill="#C8A030" opacity="0.45"/>

  <!-- diamantes -->
  <polygon points="470,100 474,104 470,108 466,104" fill="#C8A030" opacity="0.35"/>
  <polygon points="970,104 974,108 970,112 966,108"  fill="#C8A030" opacity="0.35"/>
</svg>
